<svg width="112" height="106" viewBox="0 0 112 106" fill="none" xmlns="http://www.w3.org/2000/svg">
<path d="M53.2346 18.2403C46.7319 19.1091 40.7731 22.3291 36.4828 27.2921C32.1925 32.2552 29.8679 38.617 29.9486 45.1774C30.028 47.1153 29.7365 66.9634 30.1744 68.3305C30.8898 73.0019 33.2503 77.2638 36.8313 80.3481C40.4123 83.4323 44.9771 85.1357 49.703 85.1511C50.1351 86.7264 51.3073 87.9928 52.8448 88.5459C54.3822 89.0983 56.0926 88.8683 57.4291 87.9283C58.7656 86.9883 59.561 85.4569 59.561 83.8234C59.561 82.1894 58.7656 80.658 57.4291 79.7185C56.0926 78.7786 54.3822 78.548 52.8448 79.101C51.3073 79.6533 50.1351 80.9198 49.703 82.4958C45.1619 82.4851 40.8112 80.6727 37.6048 77.4569C34.399 74.2411 32.6004 69.8843 32.6038 65.3432V45.1776C32.5244 23.5114 58.2134 12.6115 73.4009 27.6944C77.8858 32.1797 80.4023 38.2647 80.3974 44.6071V61.362C80.3974 62.0951 80.9919 62.6896 81.725 62.6896C82.4581 62.6896 83.0526 62.0951 83.0526 61.362V44.6071C83.3578 29.0478 68.6879 16.0511 53.2357 18.242L53.2346 18.2403ZM52.2123 83.4118V83.4113C52.3504 82.6283 52.8737 81.9675 53.6039 81.6528C54.334 81.3381 55.1739 81.4116 55.8383 81.849C56.5021 82.2857 56.9022 83.0278 56.9022 83.8232C56.9022 84.618 56.5021 85.36 55.8383 85.7974C55.1739 86.2342 54.3341 86.3077 53.6039 85.993C52.8737 85.6783 52.3504 85.0175 52.2123 84.2345C52.3184 83.9708 52.3184 83.6756 52.2123 83.4113V83.4118ZM89.6897 44.1016C88.2815 44.1016 86.9307 44.6611 85.9345 45.6568C84.9388 46.6531 84.3793 48.0038 84.3793 49.412V58.7051C84.5518 65.7015 94.8275 65.7015 95 58.7051V49.412C95 48.0038 94.4405 46.653 93.4448 45.6568C92.4485 44.6611 91.0978 44.1016 89.6897 44.1016ZM92.3448 58.7051C92.3448 59.654 91.8387 60.5305 91.0172 61.0046C90.1958 61.4788 89.1835 61.4788 88.3621 61.0046C87.5406 60.5305 87.0345 59.6539 87.0345 58.7051V49.412C87.0345 48.4631 87.5406 47.5866 88.3621 47.1125C89.1835 46.6383 90.1958 46.6383 91.0172 47.1125C91.8387 47.5866 92.3448 48.4632 92.3448 49.412V58.7051ZM23.3103 44.1016C21.9022 44.1016 20.5514 44.6611 19.5552 45.6568C18.5595 46.6531 18 48.0038 18 49.412V58.7051C18.1725 65.7015 28.4482 65.7015 28.6207 58.7051V49.412C28.6207 48.0038 28.0612 46.653 27.0655 45.6568C26.0692 44.6611 24.7185 44.1016 23.3103 44.1016ZM25.9655 58.7051C25.9655 59.654 25.4594 60.5305 24.6379 61.0046C23.8165 61.4788 22.8042 61.4788 21.9828 61.0046C21.1613 60.5305 20.6552 59.6539 20.6552 58.7051V49.412C20.6552 48.4631 21.1613 47.5866 21.9828 47.1125C22.8042 46.6383 23.8165 46.6383 24.6379 47.1125C25.4594 47.5866 25.9655 48.4632 25.9655 49.412V58.7051ZM72.3385 48.2172C72.8826 46.7699 71.2231 44.8319 70.6257 43.6369H70.6263C70.2547 43.0051 69.6495 42.5452 68.9414 42.3562C68.2331 42.1677 67.4792 42.2649 66.8427 42.6282L64.8644 43.7697C63.6429 42.7041 62.2276 41.8831 60.6955 41.3533V39.0697C60.6955 38.3378 60.405 37.6355 59.8871 37.1175C59.3691 36.5995 58.6667 36.3085 57.9342 36.3085H55.0669C54.3344 36.3085 53.6321 36.5995 53.1141 37.1175C52.5961 37.6355 52.3057 38.3378 52.3057 39.0697V41.3533C50.7736 41.8832 49.3583 42.704 48.1368 43.7697C47.0083 43.1853 45.4151 41.8446 44.061 42.349C42.5344 42.6015 41.6844 45.0042 40.9413 46.1197C40.5744 46.7479 40.4695 47.4953 40.6479 48.2006C40.8269 48.9053 41.2755 49.5122 41.8972 49.8897L43.8756 51.0448C43.5437 52.6296 43.5437 54.2659 43.8756 55.8509C42.8135 56.5277 40.8619 57.1784 40.61 58.6655C40.0659 60.1128 41.7254 62.0508 42.3228 63.2457H42.3222C42.6915 63.8793 43.296 64.3422 44.0042 64.5336C44.7125 64.725 45.4675 64.6296 46.1059 64.2681L48.0843 63.113H48.0837C49.3052 64.1786 50.7205 64.9989 52.2526 65.5293V67.8129V67.8123C52.2526 68.5449 52.5436 69.2472 53.0616 69.7652C53.579 70.2832 54.2819 70.5742 55.0138 70.5742H59.3155C59.6675 70.5742 60.0054 70.4343 60.2543 70.1854C60.5032 69.9359 60.6431 69.5986 60.6431 69.2466V65.5294C62.1775 65.0043 63.5934 64.1834 64.8114 63.113C65.9399 63.6974 67.533 65.0381 68.8872 64.5336C70.4138 64.2811 71.2638 61.8785 72.0069 60.763C72.3785 60.1413 72.4923 59.3987 72.3234 58.6939C72.1545 57.9892 71.7171 57.3788 71.1043 56.9923L69.1259 55.8509C69.4578 54.2661 69.4578 52.6298 69.1259 51.0448C70.1352 50.368 72.087 49.6378 72.3388 48.2172L72.3385 48.2172ZM69.6833 47.5931C69.5108 47.7389 66.5901 49.3059 66.5901 49.4647V49.4653C66.2973 49.7783 66.1741 50.2133 66.2582 50.6335C66.7359 52.475 66.7359 54.4076 66.2582 56.2491C66.1563 56.8027 66.3975 57.3627 66.8687 57.6697L69.7763 59.2896C69.8095 59.3322 69.8095 59.3921 69.7763 59.4353L68.3426 61.918C68.3225 61.9405 68.2934 61.9536 68.2626 61.9536C68.2324 61.9536 68.2034 61.9405 68.1832 61.918L65.3822 60.2982C64.853 60.0262 64.2093 60.1168 63.7755 60.524C62.3584 61.8966 60.6188 62.8917 58.7176 63.418C58.3537 63.6373 58.1172 64.0172 58.0805 64.4404V64.5334V67.8791L55.0668 67.8785C55.0081 67.8785 54.9607 67.8311 54.9607 67.7724V64.5731C54.9405 64.4522 54.9139 64.3325 54.8807 64.2146C54.7592 63.805 54.448 63.4791 54.0444 63.3386C52.2249 62.8556 50.566 61.8984 49.2384 60.5637C48.8046 60.1566 48.1615 60.0659 47.6322 60.3379L44.8313 61.9577H44.8307C44.7856 61.998 44.7169 61.998 44.6718 61.9577L43.2245 59.4353C43.1913 59.392 43.1913 59.3322 43.2245 59.2895C43.4237 59.1437 46.3047 57.5904 46.3177 57.4178C47.1937 56.4352 46.0652 54.7627 46.3177 53.4351C46.1719 52.2006 46.8885 51.0187 46.6229 49.8637C46.4772 49.1868 44.1799 48.1912 43.2642 47.5801C43.231 47.5368 43.231 47.4769 43.2642 47.4337L44.6979 44.951V44.9516C44.7465 44.9196 44.8087 44.9196 44.8573 44.9516L47.6583 46.5714L47.6589 46.5708C48.1852 46.8464 48.8282 46.7616 49.2651 46.3586C50.6786 44.9813 52.4193 43.9855 54.3229 43.4647C54.7135 43.2175 54.9606 42.7973 54.9867 42.3362V39.07C54.9867 39.0422 54.998 39.0149 55.0181 38.9954C55.0377 38.9752 55.065 38.9639 55.0934 38.9639H57.9607C57.9891 38.9639 58.0158 38.9752 58.036 38.9954C58.0555 39.0149 58.0668 39.0422 58.0668 39.07C58.0668 39.2822 58.0668 42.6011 58.1462 42.6676L58.1468 42.6682C58.2683 43.0777 58.5794 43.4037 58.983 43.5441C60.8025 44.0337 62.4609 44.9956 63.7891 46.3321C64.2259 46.7351 64.8683 46.8198 65.3952 46.5448L68.1962 44.925C68.2448 44.8936 68.307 44.8936 68.3556 44.925L69.7763 47.4474C69.8095 47.4901 69.8095 47.5506 69.7763 47.5932L69.6833 47.5931ZM56.4074 46.3716C47.1143 46.6638 47.1143 60.2182 56.4074 60.5233C65.7936 60.2187 65.7936 46.6636 56.5005 46.3716H56.4074ZM56.4074 57.8682V57.8688C54.828 57.8688 53.3689 57.026 52.5788 55.6581C51.7894 54.2903 51.7894 52.6053 52.5788 51.2374C53.3689 49.8695 54.828 49.0267 56.4074 49.0267C57.9869 49.0101 59.4556 49.8375 60.2593 51.1971C61.0635 52.5567 61.0813 54.2416 60.3061 55.6179C59.5303 56.9941 58.08 57.8524 56.5005 57.8689L56.4074 57.8682Z" fill="#2C251F"/>
</svg>
