<svg width="112" height="106" viewBox="0 0 112 106" fill="none" xmlns="http://www.w3.org/2000/svg">
<path d="M81.3911 50.1649L81.3253 50.1192C80.313 49.6425 79.1787 49.489 78.076 49.6786C76.9732 49.8683 75.9555 50.393 75.1603 51.1804L64.134 61.9974C63.948 61.5285 63.6989 61.0879 63.3936 60.6871C62.3544 59.3431 60.7485 58.5606 59.0497 58.5707H38.3534C35.768 58.5698 33.2737 59.524 31.3492 61.2501L27.5625 64.6507C27.2316 64.9386 27.0301 65.3476 27.0031 65.7854C26.9761 66.2233 27.126 66.6538 27.419 66.9805C27.7124 67.3069 28.1241 67.502 28.5624 67.5226C29.0007 67.5427 29.4289 67.3859 29.7506 67.0879L33.5374 63.6878L33.5378 63.6874C34.86 62.4987 36.5751 61.8406 38.3533 61.8402H59.0497C59.8408 61.8402 60.572 62.262 60.9674 62.947C61.3631 63.6326 61.3631 64.4766 60.9674 65.1617C60.5721 65.8468 59.8408 66.2691 59.0497 66.2691H44.9706C44.0661 66.2691 43.3326 67.0021 43.3326 67.907C43.3326 68.8114 44.0661 69.5449 44.9706 69.5449H59.0497C60.8942 69.5481 62.6166 68.6254 63.6358 67.088L77.4271 53.5131C77.7489 53.196 78.1602 52.9848 78.6053 52.909C79.0504 52.8327 79.5083 52.8948 79.9169 53.0872L80.0087 53.1329C80.6417 53.4258 81.0919 54.009 81.2144 54.6954C81.3369 55.3823 81.117 56.0851 80.6244 56.5792L63.4531 73.7505C61.3599 75.8509 58.5165 77.03 55.5518 77.0264H43.3715C41.2244 77.0241 39.2031 78.0373 37.9202 79.7588L36.0071 82.3792C35.4647 83.1031 35.6114 84.1296 36.3348 84.6726C37.0587 85.215 38.0852 85.0683 38.6282 84.3449L40.5413 81.7244V81.724C41.1998 80.8314 42.2427 80.304 43.3518 80.3023H55.5509C59.3861 80.3132 63.0664 78.7891 65.7714 76.0699L82.9427 58.8986C84.1913 57.6481 84.7511 55.8668 84.4416 54.1274C84.1323 52.3876 82.9929 50.9082 81.3902 50.1651L81.3911 50.1649Z" fill="#2C251F"/>
<path d="M54.6593 53.8009C55.0935 53.8009 55.5103 53.6286 55.8174 53.3214C56.1245 53.0143 56.2973 52.5975 56.2973 52.1629V51.0231C57.5919 50.7599 58.756 50.0575 59.5918 49.0338C60.4277 48.0105 60.8843 46.7296 60.8833 45.4083C60.8833 43.7507 60.1233 40.8223 55.0587 39.6363C51.7829 38.8895 51.7829 37.5134 51.7829 37.0615C51.7829 35.3188 53.2966 34.5259 54.6986 34.5259C55.274 34.5241 55.8371 34.6932 56.3164 35.0117C56.7954 35.3303 57.1697 35.7836 57.3913 36.3147C57.5038 36.7841 57.8173 37.1803 58.2487 37.3974C58.6801 37.614 59.1851 37.6295 59.6293 37.4394C60.0731 37.2493 60.4104 36.8732 60.5511 36.4111C60.6919 35.9491 60.6215 35.4487 60.3592 35.0434C59.6266 33.2916 58.1286 31.9749 56.2972 31.4727V30.3C56.2972 29.3956 55.5637 28.6621 54.6593 28.6621C53.7544 28.6621 53.0214 29.3956 53.0214 30.3V31.4403C51.7335 31.7113 50.5787 32.4174 49.7506 33.4397C48.9225 34.4625 48.4718 35.7389 48.4746 37.0551C48.4746 38.7127 49.2282 41.6412 54.2992 42.8271C57.5751 43.5739 57.5751 44.95 57.5751 45.402C57.5751 47.1446 56.0614 47.9375 54.6593 47.9375C54.0839 47.9388 53.5209 47.7697 53.0415 47.4517C52.5621 47.1331 52.1883 46.6798 51.9666 46.1487C51.808 45.7351 51.4886 45.4033 51.0809 45.2292C50.6737 45.0551 50.2131 45.0532 49.8045 45.2242C49.396 45.3951 49.0742 45.7246 48.9124 46.1373C48.7507 46.5495 48.763 47.0097 48.9463 47.4132C49.6816 49.1677 51.1852 50.4853 53.0214 50.9839V52.1565C53.0196 52.5921 53.1914 53.0102 53.499 53.3192C53.8061 53.6277 54.2238 53.8009 54.6593 53.8009L54.6593 53.8009Z" fill="#2C251F"/>
<path d="M33.9825 40.8416C33.8742 44.7408 34.8787 48.5907 36.8786 51.9401C37.1994 52.4839 37.534 53.0209 37.9334 53.5387C38.1103 53.7878 38.3004 54.03 38.4905 54.2658L38.9164 54.7836H38.916C39.5041 55.471 40.5383 55.5519 41.2257 54.9637C41.913 54.3755 41.9939 53.3418 41.4057 52.6544L41.0456 52.2413C40.8838 52.0402 40.7289 51.8373 40.5804 51.6321C40.266 51.1998 39.9643 50.7478 39.6892 50.3219C36.9842 45.8061 36.4791 40.3052 38.3169 35.3723C40.1545 30.4393 44.1355 26.61 49.1362 24.9648C54.1369 23.3196 59.6141 24.0375 64.0214 26.9163C68.4288 29.7946 71.2883 34.5209 71.7929 39.7611C71.8633 40.4795 71.8893 41.2016 71.8715 41.9232C71.8715 42.441 71.8189 42.9583 71.76 43.4693C71.7161 43.8491 71.6595 44.2247 71.5895 44.5963C71.4977 45.1072 71.3798 45.6181 71.2422 46.1163C71.1261 46.5353 71.1805 46.9832 71.3944 47.3617C71.6083 47.7401 71.9634 48.0179 72.3824 48.1345C73.2544 48.3767 74.158 47.8662 74.4001 46.9942C74.5637 46.4047 74.7082 45.7955 74.8197 45.1794C74.8983 44.7338 74.9705 44.2882 75.0162 43.8692C75.0884 43.2664 75.1277 42.6439 75.1473 42.0347C75.1693 41.1774 75.1387 40.32 75.0555 39.4663C74.5158 34.2816 72.0306 29.4939 68.1007 26.0693C64.1704 22.6445 59.088 20.8369 53.8777 21.0116C48.6678 21.1862 43.7179 23.3295 40.0255 27.0099C36.3333 30.6897 34.1739 35.6332 33.9825 40.8422L33.9825 40.8416Z" fill="#2C251F"/>
</svg>
