<svg width="112" height="106" viewBox="0 0 112 106" fill="none" xmlns="http://www.w3.org/2000/svg">
<path fill-rule="evenodd" clip-rule="evenodd" d="M33.3916 43.9829L38.0982 79.7568C38.4846 82.6997 41.0145 84.9178 43.9826 84.9178H67.9635C70.9321 84.9178 73.461 82.6997 73.8489 79.7568L78.555 43.9829H33.3916ZM67.963 87.192H43.9822C39.8771 87.192 36.3783 84.123 35.8429 80.0536L30.9669 42.9944C30.9236 42.6703 31.024 42.3429 31.2387 42.0969C31.4562 41.8503 31.7664 41.7095 32.0938 41.7095H79.8508C80.1782 41.7095 80.4899 41.8503 80.706 42.0969C80.922 42.3429 81.022 42.6703 80.9787 42.9944L76.1031 80.0536C75.5672 84.1229 72.0685 87.192 67.9629 87.192H67.963Z" fill="#2C251F"/>
<path fill-rule="evenodd" clip-rule="evenodd" d="M30.9584 41.7097H80.9887V39.4354H30.9584V41.7097ZM82.1266 43.9835H29.8205C29.1918 43.9835 28.6836 43.4743 28.6836 42.8466V38.2985C28.6836 37.6708 29.1919 37.1611 29.8205 37.1611H82.1266C82.7552 37.1611 83.2635 37.6708 83.2635 38.2985V42.8466C83.2635 43.4743 82.7552 43.9835 82.1266 43.9835Z" fill="#2C251F"/>
<path fill-rule="evenodd" clip-rule="evenodd" d="M61.1106 28.1322L68.1148 32.6261C68.2851 32.7351 68.4536 32.7194 68.5421 32.7013C68.6287 32.6818 68.7915 32.6252 68.9005 32.4543C69.0689 32.1931 69.0528 32.0213 69.0347 31.9361C69.0152 31.8485 68.9571 31.6867 68.7877 31.5768L61.7835 27.0839C61.6141 26.9749 61.4413 26.9906 61.3561 27.0077C61.2695 27.0272 61.1068 27.0839 60.9978 27.2547C60.7727 27.6059 60.8512 27.9662 61.1106 28.1323L61.1106 28.1322ZM68.4128 34.9899C67.875 34.9899 67.3487 34.8367 66.8866 34.5411L59.8824 30.0462C58.5637 29.1987 58.1792 27.4374 59.0253 26.1187C59.4926 25.3887 60.128 24.9485 60.8708 24.7858C61.6132 24.6259 62.3751 24.7601 63.0118 25.1703L70.016 29.6627C70.6537 30.0734 71.0939 30.7078 71.2567 31.4502C71.4181 32.194 71.2815 32.9546 70.8722 33.5912C70.4058 34.3203 69.7705 34.7605 69.0281 34.9228C68.8234 34.9676 68.6174 34.9899 68.4127 34.9899" fill="#2C251F"/>
<path fill-rule="evenodd" clip-rule="evenodd" d="M70.3142 31.2054L68.3997 29.9761L71.8561 24.59C71.9165 24.4953 71.8803 24.3216 71.7856 24.2611L67.1861 21.3105C67.0762 21.2387 66.9291 21.2706 66.8563 21.3834L63.4009 26.7695L61.4863 25.5413L64.9427 20.1541C65.6923 18.9896 67.2513 18.6498 68.4129 19.3955L73.0125 22.3461C73.5764 22.7092 73.9676 23.2698 74.1108 23.9256C74.2541 24.5804 74.1327 25.2529 73.771 25.8168L70.3142 31.2054Z" fill="#2C251F"/>
<path fill-rule="evenodd" clip-rule="evenodd" d="M35.2298 37.1605H43.3848L39.3073 33.083L35.2298 37.1605ZM45.3496 39.4348H33.2648C32.9645 39.4348 32.6771 39.3168 32.4634 39.1041L32.363 39.0051C31.7595 38.3978 31.7595 37.4175 32.3611 36.8141L38.5034 30.6713C38.9479 30.2268 39.6665 30.2268 40.111 30.6713L46.5437 37.1039C46.9881 37.5475 46.9881 38.267 46.5446 38.7106L46.1549 39.1018C45.9421 39.3155 45.6523 39.4349 45.3496 39.4349L45.3496 39.4348Z" fill="#2C251F"/>
<path fill-rule="evenodd" clip-rule="evenodd" d="M74.1664 37.1599H78.715V34.8861H74.1664V37.1599ZM79.8519 39.4342H73.0295C72.4008 39.4342 71.8926 38.925 71.8926 38.2973V33.7487C71.8926 33.121 72.4008 32.6118 73.0295 32.6118H79.8519C80.4806 32.6118 80.9888 33.121 80.9888 33.7487V38.2973C80.9888 38.925 80.4806 39.4342 79.8519 39.4342V39.4342Z" fill="#2C251F"/>
<path fill-rule="evenodd" clip-rule="evenodd" d="M48.4559 39.1745L47.0059 37.4222C49.759 35.1446 52.6956 33.7189 55.4944 33.2967C56.2092 33.1887 56.8221 32.8113 57.1758 32.2612L60.1996 27.5479L69.0274 33.2114L66.0041 37.9233C65.8961 38.0918 65.8142 38.2973 65.7462 38.5729L63.539 38.0237C63.6675 37.5074 63.8474 37.0719 64.0906 36.6955L65.8847 33.8972L60.8865 30.6907L59.0909 33.489C58.3838 34.5897 57.1964 35.3402 55.8335 35.5458C53.4421 35.9051 50.8919 37.1605 48.4561 39.1745" fill="#2C251F"/>
<path fill-rule="evenodd" clip-rule="evenodd" d="M46.8771 39.4348C46.2485 39.4348 45.7402 38.9256 45.7402 38.2979V30.3381C45.7402 29.7104 46.2485 29.2012 46.8771 29.2012H57.1108C57.7399 29.2012 58.2482 29.7104 58.2482 30.3381V33.8792C58.2482 34.5078 57.7399 35.0161 57.1108 35.0161C56.4821 35.0161 55.9739 34.5078 55.9739 33.8792V31.4755H48.0145V38.2979C48.0145 38.9256 47.5063 39.4348 46.8772 39.4348" fill="#2C251F"/>
<path fill-rule="evenodd" clip-rule="evenodd" d="M44.6049 68.999H67.3455V55.3541H44.6049V68.999ZM68.4834 71.2728H43.467C42.8383 71.2728 42.3301 70.7636 42.3301 70.1359V54.2165C42.3301 53.5888 42.8383 53.0796 43.467 53.0796H68.4834C69.112 53.0796 69.6203 53.5888 69.6203 54.2165V70.1359C69.6203 70.7636 69.112 71.2728 68.4834 71.2728V71.2728Z" fill="#2C251F"/>
<path fill-rule="evenodd" clip-rule="evenodd" d="M83.2639 62.1767H77.459V59.9024H83.2639C85.1447 59.9024 86.6751 58.372 86.6751 56.4912C86.6751 54.6104 85.1447 53.08 83.2639 53.08H78.6553V50.8057H83.2639C86.3986 50.8057 88.9494 53.3565 88.9494 56.4912C88.9494 59.6258 86.3986 62.1767 83.2639 62.1767Z" fill="#2C251F"/>
<path fill-rule="evenodd" clip-rule="evenodd" d="M34.4899 62.1767H28.685C25.5504 62.1767 23 59.6258 23 56.4912C23 53.3565 25.5504 50.8057 28.685 50.8057H33.2926V53.08H28.685C26.8034 53.08 25.2738 54.6104 25.2738 56.4912C25.2738 58.372 26.8034 59.9024 28.685 59.9024H34.4899V62.1767Z" fill="#2C251F"/>
<path fill-rule="evenodd" clip-rule="evenodd" d="M62.7974 66.7245H49.1525C48.5239 66.7245 48.0156 66.2153 48.0156 65.5876C48.0156 64.9599 48.5239 64.4502 49.1525 64.4502H62.7974C63.426 64.4502 63.9343 64.9599 63.9343 65.5876C63.9343 66.2153 63.426 66.7245 62.7974 66.7245Z" fill="#2C251F"/>
<path fill-rule="evenodd" clip-rule="evenodd" d="M62.7961 61.039H53.6994C53.0707 61.039 52.5625 60.5297 52.5625 59.902C52.5625 59.2743 53.0708 58.7651 53.6994 58.7651H62.7961C63.4248 58.7651 63.933 59.2743 63.933 59.902C63.933 60.5297 63.4248 61.039 62.7961 61.039Z" fill="#2C251F"/>
<path fill-rule="evenodd" clip-rule="evenodd" d="M50.2894 59.902C50.2894 60.5297 49.7812 61.039 49.1525 61.039C48.5239 61.039 48.0156 60.5297 48.0156 59.902C48.0156 59.2743 48.5239 58.7651 49.1525 58.7651C49.7812 58.7651 50.2894 59.2743 50.2894 59.902Z" fill="#2C251F"/>
</svg>
