<svg width="112" height="106" viewBox="0 0 112 106" fill="none" xmlns="http://www.w3.org/2000/svg">
<path d="M70.7181 59.5356C76.8953 57.3509 84.6601 56.8542 87.0853 56.7203C87.1948 56.9909 87.3798 57.2744 87.6408 57.4418C88.059 57.7091 88.5502 57.7845 89.0173 57.6048L89.7778 57.3224L89.7778 57.6472C89.7778 57.9184 89.9604 58.1712 90.2007 58.3191C90.4417 58.4669 90.7633 58.4876 91.0242 58.3765L92.9197 57.4831C93.6984 57.15 94 56.4139 94 55.6048L94 50.7249C94 49.9169 93.7084 49.1803 92.9291 48.8466L90.9382 47.9532C90.6766 47.8422 90.3892 47.8634 90.1489 48.0107C89.9079 48.1574 89.7778 48.4119 89.7778 48.6831L89.7778 49.0079L89.0167 48.7032C88.549 48.5246 88.0395 48.5776 87.6219 48.8449C87.4563 48.9504 87.3356 49.0899 87.2284 49.2422C84.9989 49.1256 77.0291 48.7188 70.7134 46.4844C63.0269 43.764 58.5155 43 52.8216 43L21.5348 43C19.8183 43 18 44.0151 18 45.6406L18 60.399C18 62.0257 19.8184 63 21.5354 63L52.8222 63C58.5159 63 63.0327 62.2561 70.7185 59.5357L70.7181 59.5356ZM87.2436 55.2092C85.5549 55.2722 83.3684 55.4385 80.4879 55.8381L80.4879 50.2014C83.3684 50.6015 85.5549 50.7672 87.2436 50.8308L87.2436 55.2092ZM78.7991 49.9469L78.7991 56.093C76.781 56.4212 74.6122 56.8642 72.5023 57.4619L67.5708 53.1499L72.5023 48.5785C74.6122 49.175 76.781 49.6181 78.7991 49.9468L78.7991 49.9469ZM92.198 50.3052C92.3717 50.3805 92.3105 50.5446 92.3105 50.7248L92.3105 55.6048C92.3105 55.7856 92.3723 55.9502 92.1992 56.0233L91.4658 56.4095L91.4658 49.9195L92.198 50.3052ZM89.777 55.5964L88.9323 56.0518L88.9323 50.2784L89.777 50.7337L89.777 55.5964ZM70.1269 47.8281C70.3037 47.8906 70.4815 47.9503 70.66 48.0105L65.6555 52.5919C65.4929 52.7431 65.2885 52.9491 65.2885 53.1645L65.2885 53.1756C65.2885 53.3949 65.5011 53.6031 65.6708 53.7526L70.6511 58.0333C70.4761 58.0925 70.3006 58.1511 70.1274 58.2124C63.036 60.7219 58.74 61.6516 53.6486 61.7403C57.0433 59.5406 58.9965 56.4707 58.9965 53.1365C58.9965 49.7051 56.8635 46.5077 53.2651 44.2973C58.5253 44.3447 62.8582 45.2565 70.127 47.8279L70.1269 47.8281ZM49.6053 44.5998C54.3588 46.1996 57.3076 49.4748 57.3076 53.1159C57.3076 56.627 54.6416 59.8 50.1714 61.3998L33.774 61.3998C29.3043 59.8 26.6384 56.6281 26.6384 53.1159C26.6384 49.4759 29.5872 46.2002 34.3407 44.5998L49.6053 44.5998ZM19.6877 60.3983L19.6877 45.6398C19.6877 44.8959 20.7492 44.599 21.5343 44.599L30.688 44.599C27.0848 46.1989 24.9489 49.6816 24.9489 53.1151C24.9489 56.4532 26.908 59.7992 30.3104 61.3991L21.5343 61.3991C20.7491 61.3991 19.6877 61.1418 19.6877 60.398L19.6877 60.3983Z" fill='#FFA438'/>
</svg>
