<svg width="112" height="106" viewBox="0 0 112 106" fill="none" xmlns="http://www.w3.org/2000/svg">
<path d="M91.8894 60.8712L89.9185 50.2947C88.9552 45.2082 84.4932 41.516 79.3097 41.516L69.6309 41.5154C69.0052 36.1733 64.4301 32 58.9328 32H34.2233C31.2601 32 28.5787 33.5132 27.0521 36.0466C26.7205 36.5952 26.8969 37.3091 27.4467 37.6406C27.9926 37.971 28.7087 37.7958 29.0407 37.246C30.1448 35.4153 32.0815 34.323 34.2233 34.323H58.9341C63.5511 34.323 67.3422 38.0749 67.3846 42.6774V65.6408H47.8777C47.3167 62.5716 44.6281 60.2351 41.3986 60.2351C38.1925 60.2351 35.5224 62.5716 34.9658 65.6408H34.2224C32.2085 65.6408 30.3337 64.6462 29.2085 62.9818C28.8485 62.4516 28.1284 62.3104 27.596 62.6698C27.0646 63.0293 26.9245 63.7509 27.284 64.2823C28.8417 66.5875 31.4356 67.9639 34.2224 67.9639H34.9592C35.5001 71.0316 38.178 73.3713 41.398 73.3713C44.6408 73.3713 47.3384 71.0316 47.8832 67.9639H67.4716C68.0124 71.0316 70.6904 73.3713 73.9103 73.3713C77.1532 73.3713 79.8507 71.0316 80.3956 67.9639H86.0367C87.8267 67.9639 89.504 67.1758 90.6376 65.8028C91.7734 64.4252 92.2289 62.6252 91.8895 60.8703L91.8894 60.8712ZM41.3988 71.0486C39.0713 71.0486 37.1769 69.1548 37.1769 66.8267C37.1769 64.4735 39.0707 62.558 41.3988 62.558C43.752 62.558 45.6676 64.4729 45.6676 66.8267C45.6664 69.1542 43.752 71.0486 41.3988 71.0486ZM73.9113 71.0486C71.6151 71.0486 69.7447 69.2051 69.6933 66.9204C69.6972 66.8814 69.7056 66.8429 69.7056 66.8027V66.4946C69.8741 64.2954 71.6937 62.5579 73.9107 62.5579C76.2639 62.5579 78.1795 64.4729 78.1795 66.8266C78.18 69.1541 76.2651 71.0485 73.9113 71.0485L73.9113 71.0486ZM88.8473 64.324C88.1558 65.1613 87.1327 65.6413 86.0387 65.6413H80.3914C79.8304 62.5721 77.1419 60.2356 73.9123 60.2356C72.3121 60.2356 70.8453 60.8188 69.7072 61.7839V43.8387H79.3107C83.3786 43.8387 86.8809 46.736 87.6368 50.7236L89.6082 61.3051C89.8164 62.3851 89.5395 63.4853 88.8474 64.3247L88.8473 64.324Z" fill="#2C251F"/>
<path d="M33.5453 45.428C33.5453 44.7873 33.0251 44.2671 32.3843 44.2671H21.161C20.5202 44.2671 20 44.7873 20 45.428C20 46.0688 20.5202 46.589 21.161 46.589H32.3843C33.0251 46.589 33.5453 46.0688 33.5453 45.428Z" fill="#2C251F"/>
<path d="M33.5452 54.5355C33.5452 53.8947 33.025 53.3745 32.3842 53.3745H24.1141C23.4733 53.3745 22.9531 53.8947 22.9531 54.5355C22.9531 55.1762 23.4733 55.6964 24.1141 55.6964H32.3837C33.025 55.697 33.5452 55.1768 33.5452 54.5355H33.5452Z" fill="#2C251F"/>
</svg>
