<svg width="112" height="106" viewBox="0 0 112 106" fill="none" xmlns="http://www.w3.org/2000/svg">
<path d="M56.6897 80.8163C56.3696 80.4204 56.0489 80.6578 56.0489 80.4204C54.1267 80.8953 50.5228 79.6285 49.0012 79.787C49.3213 79.3121 48.5207 79.3911 48.5207 79.0746C48.2006 79.5495 47.88 79.0746 47.3995 79.2331C46.9191 78.0459 44.9968 78.9167 44.7567 77.4125C43.6355 77.4125 43.2349 76.7791 42.1138 76.1457C42.1937 76.0668 42.2741 76.0668 42.354 75.9872C41.7931 75.9083 41.7932 75.5913 41.3127 75.5913L41.4731 75.2749C40.5921 75.1164 40.272 73.7706 38.9905 73.2958C38.59 73.2168 37.709 71.8711 37.2286 71.5542C36.9884 71.3957 36.5878 71.3957 37.1487 71.3167C37.0688 71.2377 37.0688 71.0793 37.1487 71.0003C36.5878 70.8418 36.508 70.3669 35.7873 70.1295C35.7074 69.892 35.9476 69.7335 35.7873 69.575C35.627 69.4961 35.3868 69.654 35.2264 69.575C35.1466 70.9997 36.7482 71.1582 37.2286 72.3461C37.0683 72.1876 36.8281 71.7127 36.6677 72.0297C36.5878 72.2671 37.3085 73.1379 37.3085 72.663C37.0683 72.8215 36.9884 72.4256 37.1482 72.3466C37.3884 72.7426 37.8688 72.663 37.8688 72.98C37.6286 73.2175 37.3079 72.7426 37.3884 73.1385C38.109 73.5344 38.0291 73.9304 38.4297 74.4842C38.1096 74.0883 38.0291 74.8006 37.709 74.4842C37.6291 73.297 36.2677 73.5344 36.2677 72.3466C36.1074 71.9507 35.9476 72.2677 35.7069 72.1092C36.027 71.7928 34.746 70.6845 34.746 71.0799C34.3455 70.605 34.5857 70.4465 34.5058 70.1301C34.1857 70.0511 34.4259 70.4465 34.1857 70.2091C34.5058 69.6546 33.7851 68.9423 33.3047 68.3884L33.6248 68.2299C33.0639 67.9135 32.984 67.2801 32.5835 66.5672C32.1031 67.2795 33.5444 68.8627 33.3042 69.1796C33.3042 69.2586 33.865 69.892 34.0248 70.2089C34.6656 71.3172 35.146 72.6629 36.027 73.2963C35.8666 73.2174 35.9471 72.7419 36.1873 72.9799C36.1873 73.2174 36.027 73.4548 36.027 73.6923L37.3884 75.038C36.3471 74.4046 35.3063 73.7712 34.5851 72.8214C34.9856 72.7424 35.3862 73.4548 35.7062 73.3758C34.9051 72.7424 35.1454 72.505 34.8253 71.7131C34.5052 71.4756 34.9051 72.0295 34.585 72.109C33.5437 71.1592 32.7432 70.6047 32.2628 69.7339C32.3427 69.655 32.4231 69.5754 32.4231 69.4175C32.3433 69.3385 32.3433 69.3386 32.2628 69.259C32.7432 69.7339 32.9036 70.1299 33.4639 70.2088C33.2237 69.9714 33.4639 69.8924 33.1438 69.6544C32.9834 69.338 32.7432 69.8129 32.5829 69.5755C32.7432 69.338 32.5829 69.021 32.5829 68.7836C32.4226 68.7836 32.2628 68.7836 32.1823 68.5461C32.022 68.4672 31.9421 68.5461 31.8622 68.7046C31.7824 68.6257 31.7824 68.4672 31.7019 68.3882L31.7019 68.3092C31.622 68.2303 31.5416 68.0718 31.4617 67.9928C30.8209 66.3301 30.4204 64.1136 29.5395 62.6888C29.7797 61.739 29.3791 59.8389 29.1389 59.3639C29.3791 58.968 29.2188 57.1473 29.059 56.8304C28.6585 56.9888 29.1389 57.8597 28.7389 58.0971C28.3384 56.3555 28.9792 54.3764 28.8188 52.7931C28.9792 52.7931 29.1389 52.7931 29.1389 52.7141C28.8987 52.4767 29.2993 52.0018 29.2188 51.4474C29.5389 50.735 28.4982 52.4767 28.4982 53.189C28.4183 53.3475 28.0976 53.189 28.1781 53.5849C28.1781 54.1394 28.3384 55.2477 28.0177 56.0389C27.8574 56.0389 27.8574 55.8804 27.6976 55.9599C27.6177 56.3559 27.5373 56.8308 27.4574 57.2267C27.3775 57.0682 27.2971 56.8308 27.2971 56.7518C26.8965 54.7727 27.2971 52.4772 27.1367 50.8145C27.4568 50.8145 27.4568 50.3396 27.6976 50.1811C27.6177 50.8145 27.4574 51.6058 27.8579 51.7642C28.1781 48.6768 28.8188 45.2725 30.2607 41.9477C31.302 39.4938 32.8238 37.0397 34.6656 35.0605C34.8259 35.298 34.5857 35.8524 34.6656 36.0899C36.2672 34.4271 37.3085 32.448 39.0705 31.3397C39.1504 31.7356 38.3499 32.0521 38.3499 32.369C39.0705 31.6567 39.3107 31.8941 40.1118 31.6567C40.352 31.3403 39.7917 31.6567 39.7112 31.3403C40.1917 31.0238 40.5123 30.6279 40.8324 30.3904C40.8324 30.4694 40.7525 30.4694 40.7525 30.5489C41.6335 30.3115 41.7134 29.8366 42.3541 29.6781C42.2742 29.5991 42.1139 29.5196 41.8737 29.5991C42.034 29.5202 42.2742 29.3617 42.5145 29.2827C42.4346 29.2827 42.4346 29.3617 42.3541 29.3617C42.8346 29.1242 42.434 29.4406 42.434 29.5991C42.5139 29.5991 42.5943 29.5202 42.5943 29.5202C42.1139 29.8366 41.7932 29.9951 41.6335 30.5495C41.8737 30.391 41.9536 30.5495 42.2742 30.312C42.5943 30.1535 42.1944 29.9161 42.4346 29.7576C42.6748 29.9161 42.9954 29.8366 43.2357 29.8366C43.2357 29.6781 43.3156 29.5201 43.4759 29.4406C43.5558 29.2821 43.4759 29.2032 43.396 29.2032C43.4759 29.1242 43.5563 29.1242 43.7161 29.0447C43.7161 29.0447 43.796 29.0447 43.796 29.1237C45.1574 28.4903 46.6791 27.9364 48.1204 27.4609C49.0014 27.382 50.1226 27.382 50.6029 26.8275C50.4426 26.8275 50.2828 26.9065 50.2024 26.8275C50.2823 26.8275 50.4426 26.7486 50.5225 26.7486C50.6828 26.9071 50.923 26.7486 50.6828 27.065C50.7627 27.065 50.7627 27.065 50.8432 26.986C50.8432 27.065 50.8432 27.065 50.923 27.1445C51.0029 27.1445 51.0834 27.0655 51.1633 26.9071C51.2431 26.9071 51.3236 26.9071 51.4035 26.8281L51.3236 26.9071C51.9644 26.7486 52.5247 26.8281 53.4057 26.6696L53.4057 26.4322C53.566 26.4322 53.6459 26.3532 53.8063 26.3532L53.8063 26.4322C54.1264 26.2737 54.447 26.5906 54.447 26.4322L54.6073 26.4322C54.6073 26.5906 54.5275 26.6696 54.5275 26.7486C54.928 26.7486 55.1682 26.7486 55.3286 26.5111C55.2487 26.4322 55.1682 26.4322 55.0883 26.4322C55.2487 26.4322 55.4084 26.3532 55.5688 26.2737C55.809 26.3526 55.8889 26.4322 55.8889 26.7486C56.2894 26.0362 57.571 26.9071 58.1313 26.7486C58.3715 26.7486 58.2916 26.4322 58.4514 26.2737L58.6916 26.2737C59.0922 26.5901 59.6525 26.9071 60.3737 26.986C59.733 26.8275 60.4536 26.7486 60.5341 26.6696C60.3737 26.6696 60.3737 26.5906 60.3737 26.5111C60.614 26.5111 60.8542 26.5901 61.0944 26.5901C61.0944 26.7486 61.1743 26.8275 61.3346 26.8275C61.4949 26.8275 61.4949 26.7486 61.4949 26.5901C61.7352 26.5901 61.8955 26.5901 62.1357 26.6691C62.0558 26.9855 62.5363 27.065 62.6966 27.3024C62.0558 27.144 61.3352 26.9065 61.095 27.3024C63.6581 27.8569 66.4608 28.6482 69.1836 29.9939L69.1836 30.0729L69.2635 30.0729C69.7439 30.3103 70.2244 30.5478 70.7048 30.7852C71.0249 30.9437 71.2657 31.1016 71.5858 31.3396C71.5858 31.4186 71.5858 31.4981 71.7461 31.4981L71.826 31.4981C72.1461 31.7356 72.4667 31.894 72.7868 32.1315C73.1069 32.6064 73.4276 33.2398 73.9879 33.0813C75.189 34.9019 76.4705 35.6148 77.5119 37.5144C77.5918 37.1979 77.832 38.2267 78.2325 38.3062C77.5918 38.2273 78.6331 38.7022 77.9923 38.6226C78.5532 39.1771 78.713 39.4145 78.7934 40.0473C78.6331 39.7309 78.5532 39.6514 78.4733 39.9684C78.3934 40.4433 79.0342 39.8894 79.2744 40.3643C78.794 40.3643 78.9543 40.6807 79.0342 41.0766C79.2744 40.8392 79.1945 40.6017 79.4347 40.6807C79.7548 40.9971 79.2744 41.0766 79.3548 41.3141C79.5951 40.9977 79.675 41.1556 79.9956 41.3141C79.5951 41.3931 80.2358 41.9475 79.7554 41.71C80.0755 42.106 80.1559 42.3434 79.9956 42.7393C79.6755 42.2644 79.9157 41.9475 79.4347 42.027C80.3956 42.8189 79.9152 44.6394 81.0363 44.798C80.3157 44.9565 81.0363 45.2729 80.6358 45.3524C81.1162 45.5109 80.876 46.1443 81.4369 46.3022C81.357 46.6982 81.1967 46.9356 81.1168 47.3315C81.357 47.648 81.4369 48.2813 81.8374 48.3608C81.5972 48.5983 81.7575 49.2317 81.5173 49.4691C81.8374 49.3106 81.9978 49.3106 82.238 49.6276C81.8374 49.944 82.1581 50.261 81.9179 50.34C82.6385 52.1606 81.7575 55.8813 82.1581 57.3066C81.6776 57.0691 81.838 57.861 81.5173 57.861C82.0782 58.0984 81.5972 58.4944 81.8374 58.8903C80.7162 59.5237 81.8374 61.2653 80.3156 61.6613C80.476 62.7696 79.8352 63.2445 79.3548 64.4323C79.2749 64.3534 79.2749 64.2739 79.1944 64.1949C79.1145 64.7493 78.7939 64.8283 78.9542 65.3032L78.6341 65.1447C78.6341 66.0155 77.2727 66.4904 76.952 67.8361C76.8721 68.2321 75.6705 69.2608 75.3504 69.8152C75.1901 70.0527 75.2705 70.4486 75.1102 69.8942C75.0303 69.9732 74.87 69.9732 74.7901 69.9732C74.7102 70.5276 74.2292 70.6855 74.0694 71.3978C73.9091 71.4768 73.6689 71.2394 73.5086 71.4768C73.5086 71.6353 73.6689 71.8727 73.5884 72.0312C75.0297 71.9523 75.0297 70.2896 76.1515 69.7357C76.0716 69.9732 75.5906 70.2106 75.9113 70.3691C76.1515 70.3691 76.8722 69.5773 76.4722 69.6568C76.7124 69.8153 76.232 69.9732 76.1521 69.8942C76.5526 69.5778 76.3923 69.1819 76.7129 69.1024C76.9532 69.2608 76.4727 69.6568 76.9532 69.5773C77.2733 68.8649 77.6738 68.7854 78.1542 68.39C77.8341 68.7064 78.5548 68.786 78.2341 69.1024C77.033 69.3398 77.433 70.6855 76.2319 70.844C75.9118 71.0814 76.1521 71.1604 76.0716 71.3984C75.6711 71.161 74.7901 72.5067 75.1107 72.4277C74.7102 72.8236 74.47 72.6652 74.1499 72.7441C74.07 73.0605 74.47 72.8231 74.3102 73.0605C73.7493 72.8231 73.0287 73.615 72.5483 74.1688L72.3081 73.9314C72.0679 74.5648 71.4271 74.6437 70.7065 75.1186C71.5076 75.5145 72.869 73.8519 73.2696 74.0893C73.3494 74.0893 73.9902 73.4559 74.2304 73.2185C75.2717 72.4266 76.5527 71.7938 77.0337 70.923C76.9539 71.0815 76.4729 71.0815 76.7136 70.844C76.9539 70.7651 77.1941 70.923 77.4343 70.923C78.7158 69.1814 80.3174 67.7567 81.5186 65.698C81.5985 65.619 81.6789 65.4605 81.7588 65.3021C81.5985 65.777 81.3582 66.1729 81.1979 66.6478C79.9164 67.5186 79.436 70.0516 77.9142 70.4475C77.9941 71.3184 77.1936 71.5558 76.793 72.5851C76.5528 72.9015 76.3925 72.3477 76.1523 72.7436C76.3925 73.8519 74.1501 73.7729 74.23 74.8017C74.0697 74.8807 73.8295 74.9602 73.6692 75.1181L73.5893 75.1181L73.4289 75.2766C73.0284 75.5141 72.7083 75.7515 72.3876 75.989C71.2665 76.6224 69.7448 77.0972 68.5436 77.7306L68.5436 77.6516C68.2235 77.8101 67.823 77.7306 67.9028 78.0476C67.6626 78.206 67.4224 78.364 67.1822 78.5225L67.0219 78.5225C67.0219 78.5225 66.942 78.4435 66.8615 78.4435C66.7012 78.4435 66.7012 78.4435 66.6213 78.5225C65.58 78.6014 64.2186 79.0769 63.818 79.3933C63.4175 79.1558 61.5756 79.5518 61.2549 79.7097C61.4153 79.9472 61.8957 79.7097 62.2962 79.7097C62.056 79.7887 61.8158 79.8682 61.7354 80.0261L61.575 80.0261C61.4951 79.7887 61.2549 80.0261 61.1745 79.9472L61.2544 79.9472C61.1745 79.6308 60.9343 79.4723 60.5337 79.5512C60.5337 79.7097 60.5337 79.7887 60.4538 79.9472C60.6142 79.9472 61.0946 79.7097 61.0946 79.9472C61.0147 79.9472 61.0147 80.0261 61.0946 80.0261C60.9343 80.1846 60.694 80.1846 60.5337 80.2636L59.4924 80.2636C59.4125 80.1846 59.3321 80.1846 59.1723 80.1051C59.0924 80.1841 58.9321 80.1841 58.8522 80.2636C58.3718 80.2636 57.8109 80.3425 57.4109 80.4221C57.4109 80.2636 57.4109 80.1057 57.2506 80.1057C57.0104 80.4221 56.5299 80.0267 55.9691 80.1846C55.4082 80.0261 56.2892 80.4221 57.0903 80.5806C57.0109 80.6573 56.9305 80.7363 56.6903 80.8158L56.6897 80.8163ZM45.4784 81.9241C44.3572 80.8948 42.035 80.4198 41.6344 79.6286C40.9936 79.5496 40.0328 78.3618 39.2316 78.2039C39.6322 78.2039 39.3115 77.9665 39.2316 77.808C39.0713 77.9665 38.9115 78.0454 38.7512 78.0454C38.7512 77.412 38.1104 77.0161 37.5501 76.6208C37.9507 76.8582 38.2708 77.0167 38.7512 77.0957C38.7512 76.9372 38.7512 76.7792 38.9115 76.7792C39.4724 77.3337 40.1126 77.8875 40.8338 78.442C41.7946 79.3128 46.7603 81.5294 47.6414 81.9253C47.6414 81.9253 47.4811 82.2418 47.5615 82.2418C47.9621 82.4792 48.2822 82.0043 48.3626 82.5582C47.08 82.7156 46.5996 81.8446 45.4784 81.9241ZM82.3984 63.5581L82.3984 63.6371C82.3185 63.6376 82.3984 63.5581 82.3984 63.5581ZM50.0433 26.905C49.9634 26.984 49.883 26.984 49.883 26.984C49.883 26.905 49.9629 26.905 50.0433 26.905ZM43.2357 28.9632C43.3155 28.8842 43.3155 28.8842 43.396 28.8842C43.3155 28.8842 43.2357 28.9632 43.2357 28.9632ZM56.0498 26.3507C55.8895 26.3507 55.8096 26.3507 55.7297 26.2718L55.9699 26.2718L56.0498 26.2718L56.0498 26.3507ZM57.4911 26.5092C57.4112 26.4302 57.171 26.3507 56.9302 26.3507C56.9302 26.2718 57.0101 26.1922 57.0101 26.1922L57.2503 26.1922C57.2503 26.1922 57.3302 26.1922 57.3302 26.2712L57.3302 26.1922L57.4905 26.1922C57.571 26.3507 57.6514 26.4297 57.4911 26.5092ZM60.134 26.7467C59.7334 26.8256 59.4932 26.6677 59.0927 26.4302C59.3329 26.4302 59.6535 26.5092 59.8938 26.5887C59.9736 26.5882 60.0541 26.6671 60.134 26.7467ZM88.6449 37.988C88.4845 38.067 88.4047 38.067 88.2443 37.7505C86.9628 35.0591 84.6406 31.1799 81.2769 27.934C77.9932 24.6091 73.5883 21.9177 69.584 20.4924C69.8242 20.5714 70.1448 20.7299 69.9845 20.8884C66.4605 19.5427 63.097 18.7508 59.8937 18.4344C51.2443 17.0887 42.1945 18.9093 35.227 23.3425C35.3069 23.501 35.3069 23.5799 35.0667 23.7384C32.5036 25.3216 28.8998 28.0926 26.0167 31.7339C23.1336 35.3757 20.8912 39.9667 19.9303 44.0834C20.0107 43.8465 20.0906 43.4505 20.2509 43.609C18.1684 51.7629 18.7291 58.7294 21.6123 64.7459C21.7727 64.5874 21.2118 63.7961 21.6922 63.875C22.0123 64.7459 22.4129 65.6957 22.8933 66.5665C23.4542 67.8332 24.0944 69.4954 24.9754 69.8914C22.7335 65.5372 21.2119 60.5503 21.0514 56.1167C21.3715 56.75 21.2916 58.0958 21.7721 58.6502C21.9324 55.6418 21.2112 51.6046 22.2525 48.7547C22.0123 50.2589 21.852 52.3169 22.0123 54.3756C22.0123 55.8799 22.7329 60.0754 23.2134 60.4714C23.1335 60.3924 23.1335 59.9965 23.2134 59.9965C23.4536 60.4714 22.8933 60.7089 23.2933 60.7884C23.2933 60.6299 23.3731 60.6299 23.4536 60.6299C24.2547 62.3715 25.2954 65.0629 26.0964 66.4087C27.0573 68.1504 28.3389 69.7336 29.7807 71.1589C29.7807 71.2378 29.8606 71.2378 29.8606 71.3174C30.0209 71.7133 30.5813 72.1882 30.7416 72.5046C30.8215 72.6631 30.6617 72.9005 30.7416 73.059C31.9427 75.2756 33.7047 77.4921 35.8671 79.2338C37.2286 80.817 39.3911 82.4797 42.034 83.9044C44.597 85.2501 47.5601 86.3583 50.2829 86.9918C52.2051 87.4667 54.5275 87.5462 55.9694 87.8626C57.8916 88.2586 61.2552 87.7042 62.9368 87.3877C73.0276 85.8835 83.0385 79.0753 88.084 69.2591C93.2899 59.3624 93.1296 47.2502 88.6449 37.988Z" fill='#FFA438' fill-opacity="0.5"/>
</svg>
