<svg width="112" height="106" viewBox="0 0 112 106" fill="none" xmlns="http://www.w3.org/2000/svg">
<path d="M57.4489 83.2006C57.1054 82.7707 56.7612 83.0285 56.7612 82.7707C54.6983 83.2863 50.8306 81.911 49.1975 82.083C49.541 81.5674 48.6819 81.6531 48.6819 81.3096C48.3384 81.8252 47.9942 81.3096 47.4786 81.4817C46.963 80.1927 44.9 81.1381 44.6423 79.505C43.439 79.505 43.0091 78.8173 41.8059 78.1296C41.8917 78.0439 41.978 78.0439 42.0637 77.9576C41.4618 77.8718 41.4618 77.5277 40.9462 77.5277L41.1183 77.1842C40.1728 77.0121 39.8293 75.551 38.454 75.0354C38.0241 74.9497 37.0787 73.4886 36.5631 73.1445C36.3053 72.9725 35.8754 72.9725 36.4774 72.8867C36.3916 72.801 36.3916 72.6289 36.4774 72.5432C35.8754 72.3711 35.7897 71.8555 35.0163 71.5977C34.9306 71.3399 35.1884 71.1678 35.0163 70.9958C34.8442 70.91 34.5864 71.0815 34.4144 70.9958C34.3286 72.5426 36.0476 72.7146 36.5631 74.0043C36.391 73.8322 36.1332 73.3166 35.9612 73.6608C35.8754 73.9186 36.6488 74.864 36.6488 74.3485C36.391 74.5205 36.3053 74.0906 36.4768 74.0049C36.7346 74.4348 37.2502 74.3485 37.2502 74.6926C36.9924 74.9504 36.6482 74.4348 36.7346 74.8647C37.508 75.2945 37.4222 75.7244 37.8521 76.3257C37.5086 75.8959 37.4222 76.6693 37.0787 76.3257C36.993 75.0367 35.5319 75.2945 35.5319 74.0049C35.3598 73.5751 35.1884 73.9192 34.93 73.7471C35.2735 73.4036 33.8987 72.2003 33.8987 72.6296C33.4689 72.114 33.7267 71.9419 33.6409 71.5984C33.2974 71.5126 33.5552 71.9419 33.2974 71.6841C33.6409 71.0822 32.8675 70.3088 32.3519 69.7074L32.6955 69.5354C32.0935 69.1918 32.0078 68.5041 31.5779 67.7301C31.0623 68.5035 32.6091 70.2223 32.3513 70.5664C32.3513 70.6522 32.9533 71.3399 33.1247 71.684C33.8124 72.8872 34.328 74.3483 35.2735 75.036C35.1014 74.9503 35.1878 74.4341 35.4456 74.6925C35.4456 74.9503 35.2735 75.2081 35.2735 75.4659L36.7346 76.927C35.617 76.2393 34.5 75.5516 33.726 74.5204C34.1559 74.4346 34.5858 75.208 34.9293 75.1223C34.0695 74.4346 34.3273 74.1768 33.9838 73.3171C33.6403 73.0593 34.0695 73.6606 33.726 73.7469C32.6085 72.7157 31.7493 72.1137 31.2338 71.1683C31.3195 71.0825 31.4058 70.9962 31.4058 70.8247C31.3201 70.739 31.3201 70.739 31.2338 70.6527C31.7494 71.1683 31.9214 71.5981 32.5228 71.6839C32.265 71.4261 32.5228 71.3403 32.1792 71.0819C32.0072 70.7384 31.7494 71.254 31.5773 70.9962C31.7494 70.7384 31.5773 70.3943 31.5773 70.1365C31.4052 70.1365 31.2337 70.1365 31.1474 69.8787C30.9753 69.7929 30.8896 69.8787 30.8039 70.0507C30.7181 69.965 30.7181 69.7929 30.6318 69.7072L30.6318 69.6215C30.5461 69.5357 30.4597 69.3637 30.374 69.2779C29.6863 67.4727 29.2565 65.0662 28.3111 63.5193C28.5689 62.4881 28.139 60.4251 27.8812 59.9094C28.139 59.4795 27.9669 57.5028 27.7954 57.1587C27.3656 57.3308 27.8812 58.2762 27.4519 58.534C27.022 56.6431 27.7097 54.4944 27.5376 52.7754C27.7097 52.7754 27.8812 52.7754 27.8812 52.6896C27.6234 52.4318 28.0532 51.9162 27.9669 51.3143C28.3105 50.5409 27.1935 52.4318 27.1935 53.2052C27.1078 53.3773 26.7636 53.2052 26.85 53.6351C26.85 54.237 27.022 55.4403 26.6779 56.2994C26.5058 56.2994 26.5058 56.1273 26.3344 56.2136C26.2486 56.6435 26.1623 57.1591 26.0766 57.589C25.9908 57.4169 25.9045 57.1591 25.9045 57.0734C25.4746 54.9246 25.9045 52.4324 25.7324 50.6271C26.076 50.6271 26.076 50.1115 26.3344 49.9395C26.2486 50.6271 26.0766 51.4862 26.5064 51.6583C26.85 48.3063 27.5376 44.6101 29.0851 41.0004C30.2026 38.3361 31.8358 35.6716 33.8125 33.5229C33.9845 33.7807 33.7267 34.3826 33.8125 34.6404C35.5313 32.8352 36.6488 30.6864 38.5399 29.4831C38.6256 29.913 37.7665 30.2565 37.7665 30.6007C38.5399 29.8272 38.7977 30.085 39.6574 29.8272C39.9152 29.4837 39.3138 29.8272 39.2275 29.4837C39.7431 29.1402 40.0872 28.7103 40.4307 28.4525C40.4307 28.5382 40.345 28.5382 40.345 28.6246C41.2905 28.3668 41.3762 27.8511 42.0639 27.6791C41.9781 27.5933 41.8061 27.507 41.5482 27.5933C41.7203 27.5076 41.9781 27.3355 42.2359 27.2498C42.1502 27.2498 42.1502 27.3355 42.0639 27.3355C42.5795 27.0777 42.1496 27.4213 42.1496 27.5933C42.2353 27.5933 42.3217 27.5076 42.3217 27.5076C41.806 27.8511 41.4619 28.0232 41.2904 28.6251C41.5482 28.4531 41.634 28.6251 41.9781 28.3673C42.3217 28.1953 41.8924 27.9375 42.1502 27.7654C42.408 27.9375 42.7521 27.8511 43.0099 27.8511C43.0099 27.6791 43.0957 27.5076 43.2677 27.4213C43.3535 27.2492 43.2677 27.1635 43.182 27.1635C43.2677 27.0777 43.3541 27.0777 43.5255 26.9914C43.5255 26.9914 43.6113 26.9914 43.6113 27.0771C45.0723 26.3894 46.7055 25.7881 48.2523 25.2719C49.1977 25.1861 50.401 25.1861 50.9166 24.5842C50.7445 24.5842 50.573 24.6699 50.4867 24.5842C50.5724 24.5842 50.7445 24.4985 50.8302 24.4985C51.0023 24.6705 51.2601 24.4985 51.0023 24.842C51.088 24.842 51.088 24.842 51.1744 24.7563C51.1744 24.842 51.1744 24.842 51.2601 24.9283C51.3458 24.9283 51.4322 24.8426 51.5179 24.6705C51.6036 24.6705 51.69 24.6705 51.7757 24.5848L51.69 24.6705C52.3776 24.4985 52.979 24.5848 53.9245 24.4127L53.9245 24.1549C54.0966 24.1549 54.1823 24.0692 54.3544 24.0692L54.3544 24.1549C54.6979 23.9829 55.0421 24.327 55.0421 24.1549L55.2141 24.1549C55.2141 24.327 55.1284 24.4127 55.1284 24.4985C55.5583 24.4985 55.8161 24.4985 55.9881 24.2407C55.9024 24.1549 55.8161 24.1549 55.7303 24.1549C55.9024 24.1549 56.0739 24.0692 56.2459 23.9829C56.5037 24.0686 56.5895 24.1549 56.5895 24.4985C57.0193 23.725 58.3947 24.6705 58.9961 24.4985C59.2539 24.4985 59.1681 24.1549 59.3396 23.9829L59.5974 23.9829C60.0273 24.3264 60.6286 24.6705 61.4027 24.7563C60.715 24.5842 61.4884 24.4985 61.5747 24.4127C61.4027 24.4127 61.4027 24.327 61.4027 24.2407C61.6605 24.2407 61.9183 24.3264 62.1761 24.3264C62.1761 24.4985 62.2618 24.5842 62.4339 24.5842C62.6059 24.5842 62.6059 24.4985 62.6059 24.3264C62.8637 24.3264 63.0358 24.3264 63.2936 24.4121C63.2079 24.7557 63.7235 24.842 63.8956 25.0998C63.2079 24.9277 62.4345 24.6699 62.1767 25.0998C64.9274 25.7017 67.9354 26.5609 70.8575 28.0219L70.8575 28.1077L70.9432 28.1077C71.4588 28.3655 71.9744 28.6233 72.49 28.8811C72.8336 29.0532 73.092 29.2246 73.4355 29.483C73.4355 29.5688 73.4355 29.6551 73.6076 29.6551L73.6933 29.6551C74.0368 29.9129 74.381 30.085 74.7245 30.3428C75.0681 30.8584 75.4122 31.546 76.0135 31.374C77.3025 33.3507 78.6778 34.1247 79.7955 36.187C79.8812 35.8435 80.139 36.9604 80.5689 37.0468C79.8812 36.961 80.9987 37.4766 80.3111 37.3903C80.913 37.9922 81.0845 38.25 81.1708 38.9371C80.9987 38.5936 80.913 38.5072 80.8273 38.8514C80.7415 39.367 81.4292 38.7656 81.687 39.2812C81.1714 39.2812 81.3435 39.6248 81.4292 40.0546C81.687 39.7968 81.6013 39.539 81.8591 39.6248C82.2026 39.9683 81.687 40.0546 81.7734 40.3124C82.0312 39.9689 82.1169 40.1404 82.461 40.3124C82.0312 40.3982 82.7188 41.0001 82.2032 40.7423C82.5468 41.1722 82.6331 41.43 82.461 41.8599C82.1175 41.3442 82.3753 41.0001 81.8591 41.0864C82.8903 41.9462 82.3747 43.9228 83.5779 44.095C82.8045 44.2671 83.5779 44.6106 83.1481 44.6969C83.6637 44.869 83.4059 45.5567 84.0078 45.7281C83.9221 46.158 83.75 46.4158 83.6643 46.8457C83.9221 47.1892 84.0078 47.8769 84.4377 47.9632C84.1799 48.221 84.3519 48.9087 84.0941 49.1665C84.4377 48.9944 84.6097 48.9944 84.8676 49.3385C84.4377 49.6821 84.7818 50.0262 84.524 50.112C85.2974 52.0886 84.3519 56.1283 84.7818 57.6757C84.2662 57.4179 84.4383 58.2776 84.0941 58.2776C84.6961 58.5354 84.1799 58.9653 84.4377 59.3952C83.2344 60.0828 84.4377 61.9738 82.8045 62.4037C82.9765 63.607 82.2889 64.1226 81.7733 65.4123C81.6875 65.3265 81.6875 65.2402 81.6012 65.1545C81.5155 65.7564 81.1713 65.8421 81.3434 66.3577L80.9998 66.1857C80.9998 67.1311 79.5388 67.6467 79.1946 69.1078C79.1089 69.5377 77.8193 70.6546 77.4758 71.2565C77.3037 71.5144 77.39 71.9442 77.218 71.3423C77.1322 71.428 76.9601 71.428 76.8744 71.428C76.7887 72.03 76.2725 72.2014 76.101 72.9748C75.9289 73.0605 75.6711 72.8027 75.4991 73.0605C75.4991 73.2326 75.6711 73.4904 75.5848 73.6625C77.1316 73.5767 77.1316 71.7716 78.3355 71.1702C78.2498 71.428 77.7336 71.6858 78.0777 71.8579C78.3355 71.8579 79.1089 70.9982 78.6796 71.0845C78.9374 71.2566 78.4218 71.428 78.3361 71.3423C78.766 70.9988 78.5939 70.5689 78.938 70.4826C79.1958 70.6546 78.6802 71.0845 79.1958 70.9982C79.5394 70.2248 79.9692 70.1384 80.4848 69.7092C80.1413 70.0527 80.9147 70.139 80.5706 70.4826C79.2816 70.7404 79.7108 72.2014 78.4218 72.3735C78.0783 72.6313 78.3361 72.717 78.2498 72.9754C77.8199 72.7176 76.8744 74.1787 77.2185 74.093C76.7887 74.5228 76.5309 74.3508 76.1873 74.4365C76.1016 74.78 76.5309 74.5222 76.3594 74.78C75.7575 74.5222 74.9841 75.382 74.4685 75.9833L74.2107 75.7255C73.9529 76.4132 73.2652 76.4989 72.4919 77.0145C73.3516 77.4444 74.8127 75.6392 75.2426 75.897C75.3283 75.897 76.016 75.2093 76.2738 74.9515C77.3913 74.0917 78.766 73.4047 79.2823 72.4592C79.1966 72.6313 78.6804 72.6313 78.9388 72.3735C79.1966 72.2878 79.4544 72.4592 79.7122 72.4592C81.0875 70.5683 82.8064 69.0216 84.0955 66.7864C84.1812 66.7007 84.2676 66.5286 84.3533 66.3565C84.1812 66.8721 83.9234 67.302 83.7514 67.8176C82.376 68.7631 81.8605 71.5131 80.2273 71.943C80.313 72.8885 79.4538 73.1463 79.024 74.2638C78.7662 74.6074 78.5941 74.006 78.3363 74.4359C78.5941 75.6392 76.1876 75.5534 76.2734 76.6704C76.1013 76.7562 75.8435 76.8425 75.6714 77.014L75.5857 77.014L75.4136 77.1861C74.9837 77.4439 74.6402 77.7017 74.2961 77.9595C73.0928 78.6471 71.4597 79.1627 70.1706 79.8504L70.1706 79.7646C69.8271 79.9367 69.3972 79.8504 69.483 80.1945C69.2252 80.3666 68.9674 80.538 68.7096 80.7101L68.5375 80.7101C68.5375 80.7101 68.4518 80.6244 68.3654 80.6244C68.1934 80.6244 68.1934 80.6244 68.1076 80.7101C66.9901 80.7958 65.529 81.312 65.0991 81.6556C64.6692 81.3978 62.6925 81.8277 62.3484 81.9991C62.5204 82.2569 63.036 81.9991 63.4659 81.9991C63.2081 82.0849 62.9503 82.1712 62.864 82.3427L62.6919 82.3427C62.6062 82.0849 62.3484 82.3427 62.262 82.2569L62.3478 82.2569C62.262 81.9134 62.0042 81.7413 61.5743 81.8271C61.5743 81.9991 61.5743 82.0849 61.4886 82.2569C61.6607 82.2569 62.1763 81.9991 62.1763 82.2569C62.0905 82.2569 62.0905 82.3427 62.1763 82.3427C62.0042 82.5147 61.7464 82.5147 61.5743 82.6005L60.4568 82.6005C60.3711 82.5147 60.2847 82.5147 60.1133 82.4284C60.0275 82.5141 59.8555 82.5141 59.7697 82.6005C59.2541 82.6005 58.6522 82.6862 58.2229 82.7725C58.2229 82.6005 58.2229 82.429 58.0509 82.429C57.7931 82.7725 57.2775 82.3433 56.6755 82.5147C56.0736 82.3427 57.0191 82.7725 57.8788 82.9446C57.7937 83.0279 57.7073 83.1137 57.4495 83.2L57.4489 83.2006ZM45.4169 84.4033C44.2136 83.2857 41.7213 82.7701 41.2914 81.911C40.6037 81.8253 39.5726 80.5357 38.7128 80.3642C39.1426 80.3642 38.7985 80.1064 38.7128 79.9344C38.5407 80.1064 38.3692 80.1922 38.1972 80.1922C38.1972 79.5045 37.5095 79.0746 36.9082 78.6454C37.338 78.9032 37.6816 79.0753 38.1972 79.161C38.1972 78.9889 38.1972 78.8175 38.3692 78.8175C38.9712 79.4194 39.6582 80.0207 40.4322 80.6227C41.4634 81.5682 46.7926 83.9748 47.7382 84.4047C47.7382 84.4047 47.5662 84.7482 47.6525 84.7482C48.0824 85.006 48.4259 84.4904 48.5122 85.0917C47.1357 85.2626 46.6201 84.3171 45.4168 84.4035L45.4169 84.4033ZM85.0397 64.4631L85.0397 64.5488C84.954 64.5494 85.0397 64.4631 85.0397 64.4631ZM50.316 24.6683C50.2302 24.7541 50.1439 24.7541 50.1439 24.7541C50.1439 24.6683 50.2296 24.6683 50.316 24.6683ZM43.0099 26.9029C43.0957 26.8171 43.0956 26.8171 43.182 26.8171C43.0957 26.8171 43.0099 26.9029 43.0099 26.9029ZM56.7622 24.0665C56.5901 24.0665 56.5044 24.0665 56.4187 23.9808L56.6765 23.9808L56.7622 23.9808L56.7622 24.0665V24.0665ZM58.309 24.2386C58.2233 24.1528 57.9654 24.0665 57.707 24.0665C57.707 23.9808 57.7928 23.8944 57.7928 23.8944L58.0506 23.8944C58.0506 23.8944 58.1363 23.8944 58.1363 23.9802L58.1363 23.8944L58.3084 23.8944C58.3947 24.0665 58.481 24.1522 58.309 24.2386L58.309 24.2386ZM61.1453 24.4964C60.7155 24.5821 60.4577 24.4106 60.0278 24.1528C60.2856 24.1528 60.6297 24.2386 60.8875 24.3249C60.9733 24.3243 61.0596 24.41 61.1453 24.4964L61.1453 24.4964ZM91.7435 36.7013C91.5714 36.787 91.4857 36.787 91.3136 36.4435C89.9383 33.5213 87.446 29.3096 83.8361 25.7855C80.312 22.1756 75.5846 19.2535 71.2871 17.7061C71.545 17.7918 71.8891 17.9639 71.717 18.136C67.9351 16.6749 64.3253 15.8152 60.8875 15.4717C51.6049 14.0106 41.8926 15.9873 34.4149 20.8004C34.5007 20.9725 34.5007 21.0582 34.2429 21.2303C31.4922 22.9491 27.6246 25.9577 24.5304 29.9111C21.4362 33.8651 19.0296 38.8495 17.9984 43.3191C18.0847 43.0619 18.1704 42.632 18.3425 42.8041C16.1075 51.6569 16.7093 59.2205 19.8036 65.7527C19.9756 65.5806 19.3737 64.7215 19.8893 64.8072C20.2328 65.7527 20.6627 66.7839 21.1783 67.7293C21.7802 69.1047 22.4673 70.9093 23.4128 71.3392C21.0069 66.6118 19.3738 61.1975 19.2016 56.3838C19.5451 57.0715 19.4594 58.5325 19.975 59.1345C20.1471 55.8683 19.3731 51.485 20.4906 48.3908C20.2328 50.024 20.0608 52.2584 20.2328 54.4935C20.2328 56.1267 21.0062 60.6819 21.5218 61.1118C21.4361 61.0261 21.4361 60.5962 21.5218 60.5962C21.7796 61.1118 21.1783 61.3696 21.6076 61.4559C21.6076 61.2839 21.6933 61.2839 21.7796 61.2839C22.6394 63.1748 23.7563 66.0969 24.616 67.5581C25.6472 69.449 27.0226 71.168 28.57 72.7154C28.57 72.8011 28.6557 72.8011 28.6557 72.8874C28.8278 73.3173 29.4291 73.8329 29.6012 74.1764C29.6869 74.3485 29.5154 74.6063 29.6012 74.7784C30.8902 77.185 32.7812 79.5914 35.102 81.4825C36.563 83.2013 38.8839 85.0066 41.7203 86.5533C44.471 88.0144 47.651 89.2176 50.5731 89.9054C52.636 90.421 55.1284 90.5073 56.6758 90.8509C58.7388 91.2807 62.3487 90.6788 64.1533 90.3353C74.9828 88.7021 85.7267 81.3104 91.1416 70.6527C96.7286 59.9078 96.5566 46.7572 91.7435 36.701" fill="#2C251F"/>
</svg>
