<svg width="43" height="43" viewBox="0 0 43 43" fill="none" xmlns="http://www.w3.org/2000/svg">
<path d="M15.4263 32.2432H21.9303C22.582 32.2432 22.582 31.2354 21.9303 31.2354H15.4263C14.7746 31.2354 14.7746 32.2432 15.4263 32.2432Z" fill="#FFA438"/>
<path d="M22.1855 31.303C21.3725 30.7252 20.5595 30.1406 19.7533 29.5628C19.2225 29.1866 18.7186 30.06 19.2426 30.4363C20.0556 31.0141 20.8686 31.5986 21.6748 32.1764C22.2056 32.5527 22.7095 31.6792 22.1855 31.303Z" fill="#FFA438"/>
<path d="M15.681 32.1764C16.4939 31.5986 17.3069 31.0141 18.1132 30.4363C18.6372 30.06 18.1333 29.1866 17.6026 29.5628C16.7896 30.1406 15.9766 30.7252 15.1704 31.303C14.6463 31.6792 15.1502 32.5527 15.681 32.1764V32.1764Z" fill="#FFA438"/>
<path d="M20.0019 29.9993V20.2168V19.7666C20.0019 19.1149 18.9941 19.1149 18.9941 19.7666V29.5491V29.9993C18.9941 30.651 20.0019 30.651 20.0019 29.9993Z" fill="#FFA438"/>
<path d="M18.3613 29.9993V20.2168V19.7666C18.3613 19.1149 17.3535 19.1149 17.3535 19.7666V29.5491V29.9993C17.3535 30.651 18.3613 30.651 18.3613 29.9993Z" fill="#FFA438"/>
<path d="M27.0621 11.7244C27.0419 14.7075 25.1137 17.2136 22.4732 18.4564C19.6581 19.78 16.1909 19.4642 13.6177 17.7442C11.6088 16.4004 10.2986 14.1496 10.2852 11.7242C10.2785 11.0725 9.27062 11.0725 9.27738 11.7242C9.29753 14.7879 11.0982 17.4956 13.7185 18.9936C16.5336 20.5994 20.0542 20.6666 22.977 19.3228C25.9399 17.9656 28.0429 15.0161 28.0631 11.7241C28.0765 11.0724 27.0687 11.0724 27.062 11.7241L27.0621 11.7244Z" fill="#FFA438"/>
<path d="M9.78955 12.228H18.779H27.567C28.2187 12.228 28.2187 11.2202 27.567 11.2202H18.5775H9.78955C9.13786 11.2202 9.13786 12.228 9.78955 12.228V12.228Z" fill="#FFA438"/>
<path d="M11.4076 16.8574H21.1495H26.0072C26.6589 16.8574 26.6589 15.8496 26.0072 15.8496H16.2652H11.4076C10.7626 15.8496 10.7626 16.8574 11.4076 16.8574Z" fill="#FFA438"/>
<path d="M19.027 15.9976C17.2869 14.0021 15.5467 12.0134 13.8066 10.0179C12.4292 8.43895 11.0519 6.86005 9.67453 5.28785C9.18406 4.73019 8.69358 4.16579 8.20313 3.60815C8.12251 3.51409 8.03516 3.42002 7.95454 3.32595C7.43048 2.72798 6.52344 2.78173 5.97924 3.3058C5.4619 3.8097 5.52909 4.64285 5.97252 5.1602C6.08674 5.28786 6.19424 5.41551 6.30846 5.54318C6.86612 6.18818 7.43052 6.82648 7.98817 7.47148C9.23787 8.90258 10.4943 10.3404 11.744 11.7715C13.1818 13.4176 14.6196 15.0637 16.0574 16.7098C16.4874 17.2003 17.1929 16.4813 16.7696 15.9976C14.9824 13.9484 13.1952 11.9059 11.4081 9.85663C10.0778 8.32472 8.73403 6.78618 7.39028 5.24758C7.20216 5.03258 7.01403 4.81758 6.82591 4.60258C6.69153 4.44805 6.57731 4.33383 6.6445 4.10539C6.73856 3.76274 7.13497 3.92399 7.2895 4.09867C7.42388 4.2532 7.55825 4.40773 7.69263 4.55555C9.88292 7.06165 12.0732 9.56775 14.2636 12.0738C15.6141 13.6191 16.9646 15.1644 18.315 16.7097C18.7383 17.2069 19.4505 16.488 19.0272 15.9975L19.027 15.9976Z" fill="#FFA438"/>
<path d="M22.589 11.5899C21.8432 8.01549 24.0201 4.4347 27.5206 3.42665C30.9404 2.43901 34.6629 4.3404 35.9258 7.65276C36.9605 10.3537 36.161 13.4175 34.0379 15.3522C31.8476 17.341 28.5285 17.6366 25.9686 16.2055C25.3975 15.8897 24.8936 16.7565 25.458 17.079C28.7301 18.9065 32.9093 18.2212 35.3953 15.4127C37.814 12.6782 38.0223 8.51921 35.9194 5.54299C33.8164 2.56678 29.8389 1.38409 26.4526 2.73454C24.82 3.38623 23.4561 4.56204 22.549 6.06034C21.5748 7.65939 21.2657 9.5541 21.5211 11.3883C21.5412 11.5495 21.5748 11.7041 21.6084 11.8653C21.7495 12.4902 22.717 12.2214 22.5894 11.5899L22.589 11.5899Z" fill="#FFA438"/>
<path d="M29.9121 17.6098V9.37287V2.65381C29.9121 2.00212 28.9043 2.00212 28.9043 2.65381V10.8908V17.6031C28.9043 18.2615 29.9121 18.2615 29.9121 17.6098V17.6098Z" fill="#FFA438"/>
<path d="M21.9291 10.6426H31.5906H36.8782C37.5299 10.6426 37.5299 9.63477 36.8782 9.63477H27.2167H21.9291C21.2841 9.63477 21.2841 10.6426 21.9291 10.6426Z" fill="#FFA438"/>
<path d="M34.339 4.49471L29.0514 9.78236C28.5945 10.2392 29.3067 10.9582 29.7636 10.4946L35.0512 5.20692C35.5081 4.75004 34.7959 4.03787 34.339 4.49471Z" fill="#FFA438"/>
<path d="M29.0525 9.78245L27.2115 11.6234C26.7546 12.0803 27.4668 12.7992 27.9237 12.3356L29.7647 10.4947C30.2216 10.0311 29.5094 9.31885 29.0525 9.78245Z" fill="#FFA438"/>
<path d="M35.052 15.0636L29.7644 9.77598C29.3075 9.3191 28.5885 10.0313 29.0522 10.4882L34.3398 15.7758C34.7967 16.2394 35.5089 15.5272 35.052 15.0636V15.0636Z" fill="#FFA438"/>
<path d="M29.763 9.78238L24.4753 4.49473C24.0184 4.03785 23.2995 4.75004 23.7631 5.20693L29.0507 10.4946C29.5076 10.9515 30.2198 10.2393 29.763 9.78238V9.78238Z" fill="#FFA438"/>
</svg>
