<svg width="112" height="106" viewBox="0 0 112 106" fill="none" xmlns="http://www.w3.org/2000/svg">
<path d="M62.4407 46.0964C62.4407 45.3435 61.8321 44.731 61.0753 44.731H42.2977C41.5448 44.731 40.9323 45.3435 40.9323 46.0964C40.9323 46.8493 41.5408 47.4618 42.2977 47.4618H59.7129V48.0429C59.7012 48.948 60.1341 49.6774 60.8948 50.0437C61.0979 50.141 61.3983 50.2468 61.7646 50.2468C62.1662 50.2468 62.6383 50.1221 63.1457 49.7283L69.2576 44.97C69.8465 44.5057 70.1744 43.8971 70.1783 43.2538C70.1783 42.6374 69.8896 42.068 69.3594 41.6468C67.2685 40.0046 65.1704 38.3662 63.064 36.7364C62.5605 36.3505 61.9408 36.1905 61.344 36.3191C60.7785 36.436 60.2908 36.7991 59.9943 37.3332C59.8187 37.661 59.7292 38.0547 59.7214 38.4877C59.709 38.6731 59.709 38.8644 59.709 39.0558H42.297C41.5441 39.0558 40.9316 39.6683 40.9316 40.4212C40.9316 41.1741 41.5402 41.7866 42.297 41.7866H61.0747C61.8276 41.7866 62.4401 41.1741 62.4401 40.4212V39.8472V39.7029C63.9655 40.8848 65.4823 42.0706 66.9999 43.2643L62.4439 46.8139L62.4407 46.0964Z" fill="white" fill-opacity="0.8"/>
<path d="M102.23 53.5003C102.21 53.4298 102.214 53.356 102.187 53.2933C102.109 53.102 101.992 52.9302 101.847 52.7859C101.847 52.7859 101.847 52.782 101.843 52.782L87.3137 38.3189C87.0212 38.0303 86.6274 37.8664 86.2141 37.8664L76.9697 37.8585V32.1801C76.9697 29.3253 74.6451 27 71.7896 27H31.9926C29.1378 27 26.8125 29.3246 26.8125 32.1801C26.8125 33.042 27.5145 33.7401 28.3725 33.7401C29.2305 33.7401 29.9325 33.042 29.9325 32.1801C29.9325 31.0452 30.8532 30.1206 31.9881 30.1206H71.7884C72.9233 30.1206 73.844 31.0453 73.844 32.1801V39.4158V39.4198V39.4237L73.9067 58.5474L28.3727 58.5467C27.5107 58.5467 26.8127 59.2448 26.8127 60.1067L26.8127 68.3683C26.8127 71.2232 29.1373 73.5446 31.9889 73.5446H36.7904C37.5198 77.2189 40.7691 80 44.6537 80C48.5383 80 51.7876 77.2189 52.5208 73.5446H79.197C79.9264 77.2189 83.1757 80 87.0603 80C90.9449 80 94.1942 77.2189 94.9236 73.5446H100.708C101.57 73.5446 102.264 72.8465 102.268 71.9885L102.307 53.8946C102.307 53.7535 102.26 53.6288 102.229 53.5002L102.23 53.5003ZM96.9681 52.3301H90.5479L91.2146 50.6259C91.5307 49.8221 91.133 48.9176 90.3292 48.6055C89.5253 48.2895 88.6209 48.6872 88.3088 49.491L87.2007 52.3301H77.0167L76.9775 40.9759L85.5741 40.9838L96.9681 52.3301ZM44.6538 76.88C41.9582 76.88 39.7622 74.684 39.7622 71.9846C39.7622 69.2852 41.9582 67.0892 44.6538 67.0892C47.3532 67.0892 49.5492 69.2852 49.5492 71.9846C49.5492 74.684 47.3532 76.88 44.6538 76.88ZM44.6538 63.9692C40.7692 63.9692 37.5239 66.7463 36.7905 70.4246H31.989C30.8581 70.4246 29.9374 69.5 29.9374 68.369L29.9374 61.668H73.9235L73.951 70.4246H52.5187C51.7887 66.7463 48.54 63.9692 44.6548 63.9692H44.6538ZM87.0602 76.88C84.3647 76.88 82.1686 74.684 82.1686 71.9846C82.1686 69.2852 84.3647 67.0892 87.0602 67.0892C89.7557 67.0892 91.9518 69.2852 91.9518 71.9846C91.9518 74.684 89.7557 76.88 87.0602 76.88ZM94.9203 70.4246C94.187 66.7503 90.9416 63.9692 87.057 63.9692C83.1724 63.9692 79.9271 66.7463 79.1937 70.4246H77.0723L77.037 60.2947C77.0448 60.2281 77.0762 60.1739 77.0762 60.1073C77.0762 60.0368 77.0448 59.9787 77.037 59.9121L77.0246 55.4508H99.1806L99.1493 70.4251L94.9203 70.4246Z" fill="white" fill-opacity="0.8"/>
<path d="M46.8627 71.9855C46.8627 73.2001 45.878 74.1854 44.6628 74.1854C43.4482 74.1854 42.4629 73.2001 42.4629 71.9855C42.4629 70.7703 43.4482 69.7856 44.6628 69.7856C45.878 69.7856 46.8627 70.7703 46.8627 71.9855Z" fill="white" fill-opacity="0.8"/>
<path d="M89.1127 71.9855C89.1127 73.2001 88.128 74.1854 86.9128 74.1854C85.6982 74.1854 84.7129 73.2001 84.7129 71.9855C84.7129 70.7703 85.6982 69.7856 86.9128 69.7856C88.128 69.7856 89.1127 70.7703 89.1127 71.9855Z" fill="white" fill-opacity="0.8"/>
<path d="M36.8502 35.8428H26.2482C25.4953 35.8428 24.8828 36.4553 24.8828 37.2082C24.8828 37.9611 25.4914 38.5736 26.2482 38.5736H36.8502C37.603 38.5736 38.2156 37.9611 38.2156 37.2082C38.2149 36.4553 37.6024 35.8428 36.8502 35.8428Z" fill="white" fill-opacity="0.8"/>
<path d="M23.7177 37.2082C23.7177 36.4553 23.1091 35.8428 22.3523 35.8428L20.2385 35.8434C19.4856 35.8434 18.873 36.4559 18.873 37.2088C18.873 37.9617 19.4816 38.5742 20.2385 38.5742H22.3528C23.1056 38.5736 23.7175 37.965 23.7175 37.2082L23.7177 37.2082Z" fill="white" fill-opacity="0.8"/>
<path d="M16.1254 38.5726C16.8783 38.5726 17.4908 37.9601 17.4908 37.2072C17.4908 36.4543 16.8823 35.8418 16.1254 35.8418L14.9474 35.8424C14.1945 35.8424 13.582 36.455 13.582 37.2079C13.582 37.9607 14.1906 38.5733 14.9474 38.5733L16.1254 38.5726Z" fill="white" fill-opacity="0.8"/>
<path d="M26.2482 50.2474H36.8502C37.603 50.2474 38.2156 49.6349 38.2156 48.882C38.2156 48.1291 37.607 47.5166 36.8502 47.5166L26.2482 47.5173C25.4953 47.5173 24.8828 48.1298 24.8828 48.8827C24.8828 49.6349 25.4953 50.2474 26.2482 50.2474V50.2474Z" fill="white" fill-opacity="0.8"/>
<path d="M23.7177 48.883C23.7177 48.1301 23.1091 47.5176 22.3523 47.5176H20.2385C19.4856 47.5176 18.873 48.1301 18.873 48.883C18.873 49.6359 19.4816 50.2484 20.2385 50.2484H22.3528C23.1056 50.2477 23.7175 49.6352 23.7175 48.883H23.7177Z" fill="white" fill-opacity="0.8"/>
<path d="M16.1254 50.2474C16.8783 50.2474 17.4908 49.6349 17.4908 48.882C17.4908 48.1291 16.8823 47.5166 16.1254 47.5166L14.9474 47.5173C14.1945 47.5173 13.582 48.1298 13.582 48.8827C13.582 49.6356 14.1906 50.2481 14.9474 50.2481L16.1254 50.2474Z" fill="white" fill-opacity="0.8"/>
<path d="M21.6603 44.4115H32.2623C33.0152 44.4115 33.6277 43.799 33.6277 43.0461C33.6277 42.2932 33.0191 41.6807 32.2623 41.6807L21.6603 41.6813C20.9074 41.6813 20.2949 42.2938 20.2949 43.0467C20.2956 43.799 20.9081 44.4115 21.6603 44.4115V44.4115Z" fill="white" fill-opacity="0.8"/>
<path d="M15.0724 44.4115H17.1867C17.9396 44.4115 18.5521 43.799 18.5521 43.0461C18.5521 42.2932 17.9436 41.6807 17.1867 41.6807L15.0724 41.6813C14.3195 41.6813 13.707 42.2938 13.707 43.0467C13.7077 43.799 14.3163 44.4115 15.0724 44.4115V44.4115Z" fill="white" fill-opacity="0.8"/>
<path d="M11.5434 41.6816H10.3654C9.61251 41.6816 9 42.2941 9 43.047C9 43.7999 9.60858 44.4124 10.3654 44.4124H11.5473C12.3002 44.4124 12.9127 43.7999 12.9127 43.047C12.9121 42.2941 12.2996 41.6816 11.5434 41.6816V41.6816Z" fill="white" fill-opacity="0.8"/>
<path d="M33.6277 55.0397C33.6277 54.2868 33.0191 53.6743 32.2623 53.6743L21.6603 53.675C20.9074 53.675 20.2949 54.2875 20.2949 55.0404C20.2949 55.7933 20.9035 56.4058 21.6603 56.4058H32.2623C33.0152 56.4051 33.6277 55.7926 33.6277 55.0397V55.0397Z" fill="white" fill-opacity="0.8"/>
<path d="M17.6516 53.3516H15.5412C14.7883 53.3516 14.1758 53.9641 14.1758 54.717C14.1758 55.4699 14.7844 56.0824 15.5412 56.0824H17.6516C18.4045 56.0824 19.017 55.4699 19.017 54.717C19.0164 53.9641 18.4045 53.3516 17.6516 53.3516Z" fill="white" fill-opacity="0.8"/>
<path d="M11.5434 53.3516H10.3654C9.61251 53.3516 9 53.9641 9 54.717C9 55.4699 9.60858 56.0824 10.3654 56.0824H11.5473C12.3002 56.0824 12.9127 55.4699 12.9127 54.717C12.9121 53.9641 12.2996 53.3516 11.5434 53.3516V53.3516Z" fill="white" fill-opacity="0.8"/>
</svg>
