<svg width="112" height="106" viewBox="0 0 112 106" fill="none" xmlns="http://www.w3.org/2000/svg">
<path d="M56.5 20C37.9554 20 23 34.953 23 53.5C23 72.047 37.9554 87 56.5 87C75.0458 87 90 72.047 90 53.5C90 34.953 75.0458 20 56.5 20ZM56.5 36.3432C60.8572 36.3432 63.2613 38.6398 64.38 40.8789C65.4872 43.1148 65.4877 45.3295 65.4877 45.3295C65.4877 45.3295 65.4853 47.3087 64.5413 49.415H67.122C67.3402 49.4118 67.551 49.4968 67.7066 49.6501C67.8623 49.8039 67.9501 50.0132 67.9501 50.232C67.9501 50.4507 67.8623 50.6601 67.7066 50.8134C67.551 50.9671 67.3402 51.0517 67.122 51.0489H63.5775C62.2559 52.809 60.0252 54.3158 56.5 54.3158C54.15 54.3158 52.6135 54.9972 51.561 55.9515H67.1217C67.34 55.9487 67.5508 56.0333 67.7064 56.1871C67.862 56.3404 67.9499 56.5497 67.9499 56.7685C67.9499 56.9872 67.862 57.1966 67.7064 57.3503C67.5508 57.5036 67.34 57.5887 67.1217 57.5854H50.2856C50.2178 57.7027 50.143 57.8261 50.0814 57.9495C49.1466 59.7993 49.1462 61.671 49.1462 61.671C49.1462 61.671 49.1574 63.5428 50.0814 65.3892C51.0053 67.239 52.6868 69.0248 56.5 69.0248C60.3131 69.0248 61.9947 67.239 62.9186 65.3892C63.8537 63.5427 63.8537 61.671 63.8537 61.671C63.8505 61.4522 63.9355 61.2415 64.0888 61.0858C64.2426 60.9302 64.4519 60.8428 64.6707 60.8428C64.8894 60.8428 65.0988 60.9302 65.2521 61.0858C65.4058 61.2415 65.4904 61.4522 65.4876 61.671C65.4876 61.671 65.4988 63.8829 64.38 66.1216C63.2611 68.3607 60.8576 70.6572 56.4999 70.6572C52.1418 70.6572 49.7387 68.3607 48.6199 66.1216C47.5123 63.8829 47.5123 61.671 47.5123 61.671C47.5123 61.671 47.5146 59.6917 48.4587 57.5854H45.878C45.6593 57.5887 45.4489 57.5036 45.2933 57.3503C45.1377 57.1966 45.0498 56.9872 45.0498 56.7685C45.0498 56.5497 45.1377 56.3404 45.2933 56.1871C45.4489 56.0333 45.6593 55.9487 45.878 55.9515H49.4256C50.7478 54.191 52.9757 52.6814 56.5 52.6814C58.8512 52.6814 60.3884 52.0033 61.4409 51.0489H45.8777C45.659 51.0517 45.4487 50.9671 45.2931 50.8134C45.1374 50.6601 45.0496 50.4507 45.0496 50.232C45.0496 50.0132 45.1374 49.8039 45.2931 49.6501C45.4487 49.4968 45.659 49.4118 45.8777 49.415H62.7139C62.7816 49.2973 62.856 49.1743 62.9181 49.051C63.8533 47.2012 63.8533 45.3295 63.8533 45.3295C63.8533 45.3295 63.8421 43.4577 62.9181 41.6112C61.9941 39.7614 60.3126 37.9756 56.4995 37.9756C52.6864 37.9756 51.0048 39.7614 50.0809 41.6112C49.1462 43.4578 49.1457 45.3295 49.1457 45.3295C49.149 45.5482 49.0639 45.759 48.9107 45.9146C48.7569 46.0702 48.5475 46.1576 48.3288 46.1576C48.1101 46.1576 47.9007 46.0702 47.7469 45.9146C47.5937 45.759 47.5086 45.5482 47.5119 45.3295C47.5119 45.3295 47.5006 43.1146 48.6195 40.8789C49.7383 38.6398 52.1415 36.3432 56.4995 36.3432H56.5Z" fill="#FFA438" fill-opacity="0.55"/>
</svg>
